<?xml version="1.0" encoding="UTF-8"?>
<svg id="Layer_2" data-name="Layer 2" xmlns="http://www.w3.org/2000/svg" viewBox="0 0 130.21 99.44">
  <defs>
    <style>
      .cls-1 {
        fill: #00eb95;
      }
    </style>
  </defs>
  <g id="Layer_1-2" data-name="Layer 1">
    <path class="cls-1" d="M11.74,99.44l.5-1.01,46.94-46.95c.97-.79,1.85-1.68,3.34-1.68,16.14,0,33.61,1.41,49.3.01s15.77-24.82-.99-24.82c-15.86,0-48.63.02-48.63.02l-3.87,1.5-23.3,23.31H0l24.48-24.64,33.03-.16,2.17-.51L84.4.26c17.68-1.8,35.47,5.68,42.74,22.51,10.22,23.64-6.23,50.16-31.75,51.86-7.15.48-15.09-.63-22.14-.01-.86.08-1.63.22-2.4.62l-24.41,24.21H11.74Z"/>
  </g>
</svg>