<?xml version="1.0" encoding="UTF-8"?>
<svg id="Layer_2" data-name="Layer 2" xmlns="http://www.w3.org/2000/svg" viewBox="0 0 349.44 99.44">
  <defs>
    <style>
      .cls-1 {
        fill: #00eb95;
      }

      .cls-2 {
        fill: #fff;
      }
    </style>
  </defs>
  <g id="Layer_1-2" data-name="Layer 1">
    <g>
      <g>
        <path class="cls-2" d="M152.61,51.74v13.61h-4.97V27.61h20.38c7.73,0,11.45,5.72,11.45,12.03s-3.72,12.11-11.45,12.11h-15.4ZM152.61,33.1v13.24h14.45c5.93,0,7.07-3.61,7.07-6.69s-1.14-6.54-7.07-6.54h-14.45Z"/>
        <path class="cls-2" d="M215.31,27.61h4.97v19.48c0,13.99-8.15,19.03-17.14,19.03s-17.08-5.04-17.08-19.03v-19.48h5.04v19.48c0,10.38,5.39,13.99,12.05,13.99s12.17-3.61,12.17-13.99v-19.48Z"/>
        <path class="cls-2" d="M230.35,65.36V27.61h4.97v32.41h23.2v5.34h-28.17Z"/>
        <path class="cls-2" d="M292.27,34.22c-2.82-1.28-7.25-2.03-12.89-2.03-5.1,0-11.27.6-11.27,5.41,0,9.55,26.49-.53,26.49,16.77,0,9.93-8.75,11.73-16.72,11.73-4.74,0-10.79-.6-15.28-1.88l.18-5.11c4.74,1.28,9.83,1.88,14.51,1.88,6.17,0,12.53-1.13,12.53-6.39,0-10.45-26.55-.23-26.55-16.69,0-9.7,9.11-10.9,15.46-10.9s11.57,1.13,13.85,2.11l-.3,5.11Z"/>
        <path class="cls-2" d="M302.46,65.36V27.61h30.21v4.96h-25.23v11.2h20.92v4.66h-20.92v11.96h25.23v4.96h-30.21Z"/>
        <path class="cls-2" d="M343.87,38.53c-2.91,0-5.53-1.84-5.53-5.47s2.67-5.45,5.53-5.45,5.57,1.82,5.57,5.45-2.66,5.47-5.57,5.47ZM343.89,28.42c-2.44,0-4.58,1.56-4.58,4.65s2.18,4.61,4.58,4.61,4.58-1.52,4.58-4.61-2.18-4.65-4.58-4.65ZM346.05,36.01l-1.34-2.1h-2.62v2.1h-.93v-6.07h3.7c1.45,0,2.13.98,2.13,1.98,0,.88-.42,1.6-1.3,1.88l1.43,2.22h-1.06ZM342.1,30.84v2.2h2.64c1.04,0,1.25-.56,1.25-1.12,0-.46-.2-1.08-1.25-1.08h-2.64Z"/>
      </g>
      <path class="cls-1" d="M11.74,99.44l.5-1.01,46.94-46.95c.97-.79,1.85-1.68,3.34-1.68,16.14,0,33.61,1.41,49.3.01s15.77-24.82-.99-24.82c-15.86,0-48.63.02-48.63.02l-3.87,1.5-23.3,23.31H0l24.48-24.64,33.03-.16,2.17-.51L84.4.26c17.68-1.8,35.47,5.68,42.74,22.51,10.22,23.64-6.23,50.16-31.75,51.86-7.15.48-15.09-.63-22.14-.01-.86.08-1.63.22-2.4.62l-24.41,24.21H11.74Z"/>
    </g>
  </g>
</svg>